HIERARCHY
ROOT Hips
{
    OFFSET 0.000000 0.000000 0.000000
    CHANNELS 6 Xposition Yposition Zposition Zrotation Xrotation Yrotation
    JOINT Spine
    {
        OFFSET -0.000000 0.081343 0.000000
        CHANNELS 3 Zrotation Xrotation Yrotation
        JOINT Spine1
        {
            OFFSET -0.000000 0.243280 0.000000
            CHANNELS 3 Zrotation Xrotation Yrotation
            JOINT Neck
            {
                OFFSET -0.000000 0.242281 0.022026
                CHANNELS 3 Zrotation Xrotation Yrotation
                JOINT Head
                {
                    OFFSET -0.000000 0.149025 -0.021289
                    CHANNELS 3 Zrotation Xrotation Yrotation
                    End Site
                    {
                        OFFSET -0.000000 0.198396 0.000000
                    }
                }
            }
            JOINT LeftShoulder
            {
                OFFSET 0.039707 0.224479 -0.002125
                CHANNELS 3 Zrotation Xrotation Yrotation
                JOINT LeftArm
                {
                    OFFSET 0.116942 0.000000 0.000000
                    CHANNELS 3 Zrotation Xrotation Yrotation
                    JOINT LeftForeArm
                    {
                        OFFSET 0.282002 0.000000 0.000000
                        CHANNELS 3 Zrotation Xrotation Yrotation
                        JOINT LeftHand
                        {
                            OFFSET 0.358743 0.000000 0.000000
                            CHANNELS 3 Zrotation Xrotation Yrotation
                            End Site
                            {
                                OFFSET 0.148797 0.000000 0.000000
                            }
                        }
                    }
                }
            }
            JOINT RightShoulder
            {
                OFFSET -0.039404 0.224479 -0.002125
                CHANNELS 3 Zrotation Xrotation Yrotation
                JOINT RightArm
                {
                    OFFSET -0.116942 0.000000 0.000000
                    CHANNELS 3 Zrotation Xrotation Yrotation
                    JOINT RightForeArm
                    {
                        OFFSET -0.282002 0.000000 0.000000
                        CHANNELS 3 Zrotation Xrotation Yrotation
                        JOINT RightHand
                        {
                            OFFSET -0.358743 0.000000 0.000000
                            CHANNELS 3 Zrotation Xrotation Yrotation
                            End Site
                            {
                                OFFSET -0.148797 0.000000 0.000000
                            }
                        }
                    }
                }
            }
        }
    }
    JOINT LeftUpLeg
    {
        OFFSET 0.099198 0.000000 0.000000
        CHANNELS 3 Zrotation Xrotation Yrotation
        JOINT LeftLeg
        {
            OFFSET -0.000000 -0.332973 0.000000
            CHANNELS 3 Zrotation Xrotation Yrotation
            JOINT LeftFoot
            {
                OFFSET -0.000000 -0.491254 0.000000
                CHANNELS 3 Zrotation Xrotation Yrotation
                JOINT LeftToeBase
                {
                    OFFSET -0.000000 -0.064479 0.148797
                    CHANNELS 3 Zrotation Xrotation Yrotation
                    End Site
                    {
                        OFFSET -0.000000 0.000000 0.039679
                    }
                }
            }
        }
    }
    JOINT RightUpLeg
    {
        OFFSET -0.099198 0.000000 0.000000
        CHANNELS 3 Zrotation Xrotation Yrotation
        JOINT RightLeg
        {
            OFFSET -0.000000 -0.332973 0.000000
            CHANNELS 3 Zrotation Xrotation Yrotation
            JOINT RightFoot
            {
                OFFSET -0.000000 -0.491254 0.000000
                CHANNELS 3 Zrotation Xrotation Yrotation
                JOINT RightToeBase
                {
                    OFFSET -0.000000 -0.064479 0.148797
                    CHANNELS 3 Zrotation Xrotation Yrotation
                    End Site
                    {
                        OFFSET -0.000000 0.000000 0.039679
                    }
                }
            }
        }
    }
}
MOTION
Frames:    7
Frame Time:    0.010000
-0.187050    0.873696    -1.198322    -0.887223    3.497918    5.858761    3.358859    -4.774484    5.594957    -14.280168    1.186003    1.974326    2.322402    25.773993    17.944317    -13.694128    -6.666443    16.229383    -17.793350    22.229780    12.479122    -54.483139    -0.233944    -20.019567    65.115181    -56.528103    -76.114555    55.316837    -7.242401    -2.558915    13.636053    25.105375    -5.792612    57.167778    24.051256    15.836967    -50.240719    -51.003010    77.131927    -29.895655    -14.094543    -0.844009    12.854468    -25.989973    19.257027    -7.857300    25.510656    -17.664034    13.071099    0.528166    44.413292    0.000000    0.000000    0.000000    -11.240992    9.203057    -6.311342    130.791061    -18.697861    13.914884    30.299824    0.440249    23.672211    0.000000    0.000000    0.000000    
-0.183609    0.872261    -1.191719    -1.217064    3.023038    6.970916    3.816890    -5.157840    5.629820    -14.876016    2.288135    2.125332    2.453390    25.793243    17.665447    -13.282749    -6.709532    16.024746    -17.674122    22.271160    12.226262    -54.184929    -0.111977    -20.124033    65.282944    -56.472683    -75.781067    55.570923    -7.181695    -2.218542    13.907820    26.308487    -4.523038    57.236115    26.119949    17.421268    -56.542431    -52.590919    70.343025    -28.252457    -15.886388    -1.002339    12.303370    -24.583527    19.288424    -6.607562    24.983513    -9.621346    14.034305    -4.016228    32.807007    0.000000    0.000000    0.000000    -10.657729    10.452678    -7.161825    130.859833    -18.349365    14.024329    30.299824    0.440249    23.672211    0.000000    0.000000    0.000000    
-0.179582    0.871709    -1.187460    -1.262382    3.070397    7.807054    3.967057    -5.252693    5.992948    -15.572609    2.441525    2.278006    2.729437    25.647572    17.195826    -12.671936    -6.195014    15.729136    -17.421135    22.317509    11.911780    -53.894264    -0.042201    -19.933922    64.433617    -56.194000    -76.523811    56.207603    -6.893620    -2.157681    14.404658    25.369314    -5.543804    56.557037    28.431910    16.079632    -57.521904    -52.181046    69.796402    -28.464645    -14.682616    -1.207551    12.291985    -25.410089    19.873087    -7.217968    25.324999    -9.362086    13.667319    -1.684924    33.476025    0.000000    0.000000    0.000000    -10.553162    10.720836    -8.074393    130.824310    -18.170349    13.491281    30.299824    0.440249    23.672211    0.000000    0.000000    0.000000    
-0.175063    0.869317    -1.182035    -0.735220    2.184004    9.156607    3.532139    -4.386642    5.767428    -16.157724    2.663369    2.261672    2.930525    24.768368    16.883314    -11.564292    -4.594914    15.764343    -17.068617    22.440102    11.752727    -53.712078    0.632671    -20.194176    65.699097    -56.427132    -75.009651    55.911995    -7.280840    -1.701112    14.683152    24.601017    -6.073563    56.695751    28.730780    15.353136    -57.911098    -50.907028    69.680519    -28.300114    -11.777412    -3.723189    10.855417    -23.959923    18.992657    -6.439494    25.808786    -3.668153    6.931873    -6.484202    27.489628    0.000000    0.000000    0.000000    -10.553162    10.720836    -8.074393    130.824310    -18.170349    13.491281    30.299824    0.440249    23.672211    0.000000    0.000000    0.000000    
-0.169973    0.871313    -1.180016    -0.948559    3.364382    9.464864    4.067338    -5.675108    6.511590    -17.201128    3.102775    2.579386    3.930553    25.259260    16.428064    -12.623554    -5.196916    15.136522    -16.662119    22.530666    11.612817    -53.567631    1.278195    -20.597506    66.690376    -56.516342    -73.795822    55.863865    -7.529635    -1.434259    15.288956    24.522598    -6.609387    55.502628    31.613806    16.088438    -60.366123    -51.563351    66.850815    -27.283251    -12.937638    -3.984988    10.792192    -25.990782    19.415834    -6.820385    26.093822    -3.501593    5.791628    -3.587026    29.335716    0.000000    0.000000    0.000000    -3.299279    6.221152    -4.631694    130.824310    -18.170349    13.491281    30.299824    0.440249    23.672211    0.000000    0.000000    0.000000    
-0.164977    0.871091    -1.176247    -0.718821    3.522494    10.197025    4.037879    -5.836901    6.619963    -17.980335    3.362809    2.676928    3.807176    25.193369    16.277172    -11.903615    -5.209673    15.095384    -16.317131    22.137293    11.745059    -53.288475    2.367774    -20.517374    68.246620    -56.415245    -71.932663    56.400597    -7.635806    -1.315800    16.002529    25.341702    -5.405634    55.015289    26.973587    14.856289    -52.678535    -50.212212    75.389336    -29.424461    -10.631972    -5.161559    9.678221    -25.746830    18.910463    -6.806225    25.708370    -3.961779    7.001087    -3.068671    29.824976    0.000000    0.000000    0.000000    -2.066530    9.154658    -1.395508    130.824310    -18.170349    13.491281    30.299824    0.440249    23.672211    0.000000    0.000000    0.000000    
-0.159013    0.871396    -1.172712    -0.333903    3.656235    11.038450    3.919286    -5.822730    7.109655    -18.945873    3.566728    2.905135    4.857075    25.369755    15.661863    -12.135657    -5.181828    14.511479    -15.951320    22.567772    11.158127    -52.983784    2.740998    -20.911896    69.366539    -56.721420    -70.612984    55.684418    -8.168389    -0.830467    18.523075    22.271109    -10.788624    48.783150    39.865364    19.341990    -60.552326    -53.070435    64.816841    -27.847538    -17.225224    -3.082533    8.525476    -26.362389    18.114870    -7.117360    25.950987    -3.826299    7.865124    -1.002154    31.005024    0.000000    0.000000    0.000000    -2.066530    9.154658    -1.395508    130.824310    -18.170349    13.491281    30.299824    0.440249    23.672211    0.000000    0.000000    0.000000    
